<?xml version="1.0" encoding="utf-8"?>
<!-- Generator: Adobe Illustrator 28.3.0, SVG Export Plug-In . SVG Version: 6.00 Build 0)  -->
<svg version="1.1" id="Layer_1" xmlns="http://www.w3.org/2000/svg" xmlns:xlink="http://www.w3.org/1999/xlink" x="0px" y="0px"
	 viewBox="0 0 24 24" style="enable-background:new 0 0 24 24;" xml:space="preserve">
<style type="text/css">
	.st0{fill:#FFFFFF;}
</style>
<path class="st0" d="M7.9,7.4C7.5,7.8,7.3,8.2,7.3,8.8s0.2,1,0.6,1.4c0.4,0.4,0.9,0.6,1.4,0.6c0.5,0,1-0.2,1.4-0.6
	c0.4-0.4,0.6-0.9,0.6-1.4s-0.2-1-0.6-1.4C10.3,7,9.8,6.8,9.3,6.8C8.7,6.8,8.3,7,7.9,7.4z M14.9,3c-1.6-1.5-3.5-2.2-5.6-2.2
	c-2.1,0-4,0.7-5.6,2.2C2.1,4.5,1.3,6.5,1.3,9c0,1.7,0.7,3.5,2,5.4c1.3,2,3.3,4.1,6,6.4c0.6-0.5,1.2-1,1.8-1.6
	c0.6-0.6,1.2-1.1,1.7-1.7c0-0.1,0-0.2,0-0.3v-2.7c-0.6,0.7-1.2,1.4-2,2.2c-0.4,0.4-0.9,0.9-1.4,1.4c-2-1.9-3.5-3.6-4.5-5.1
	c-1-1.5-1.5-2.9-1.5-4.1c0-1.8,0.6-3.3,1.7-4.5c1.2-1.2,2.6-1.7,4.3-1.7c1.7,0,3.1,0.6,4.3,1.7c1.2,1.2,1.7,2.6,1.7,4.5
	c0,0.4-0.1,0.8-0.2,1.2c-0.2,0.6-0.4,1.3-0.8,2h2.2c0.3-0.7,0.5-1.4,0.6-2c0.1-0.4,0.1-0.8,0.1-1.2C17.3,6.5,16.5,4.5,14.9,3z
	 M10.7,7.4C10.3,7,9.8,6.8,9.3,6.8c-0.6,0-1,0.2-1.4,0.6C7.5,7.8,7.3,8.2,7.3,8.8s0.2,1,0.6,1.4c0.4,0.4,0.9,0.6,1.4,0.6
	c0.5,0,1-0.2,1.4-0.6c0.4-0.4,0.6-0.9,0.6-1.4S11.1,7.8,10.7,7.4z M10.7,7.4C10.3,7,9.8,6.8,9.3,6.8c-0.6,0-1,0.2-1.4,0.6
	C7.5,7.8,7.3,8.2,7.3,8.8s0.2,1,0.6,1.4c0.4,0.4,0.9,0.6,1.4,0.6c0.5,0,1-0.2,1.4-0.6c0.4-0.4,0.6-0.9,0.6-1.4S11.1,7.8,10.7,7.4z"
	/>
<path class="st0" d="M14.2,17.2c0,0.6,0.2,1,0.8,1.4c0.5,0.3,1.1,0.5,1.7,0.5c0.7,0,1.2-0.2,1.7-0.5c0.5-0.3,0.8-0.8,0.8-1.4H14.2z
	 M15.4,15.4c0.2-0.2,0.3-0.4,0.3-0.7c0-0.2-0.1-0.5-0.2-0.6c-0.1,0.1-0.1,0.2-0.2,0.3c-0.3,0.4-0.6,0.8-0.9,1.2
	c0.1,0,0.2,0.1,0.4,0.1C15,15.7,15.2,15.6,15.4,15.4z M19.4,14c-0.2-0.2-0.4-0.3-0.7-0.3c-0.3,0-0.5,0.1-0.7,0.3s-0.3,0.4-0.3,0.7
	c0,0.3,0.1,0.5,0.3,0.7s0.4,0.3,0.7,0.3c0.3,0,0.5-0.1,0.7-0.3s0.3-0.4,0.3-0.7C19.7,14.4,19.6,14.2,19.4,14z M15.5,14.1
	C15.5,14.1,15.5,14,15.5,14.1c-0.3-0.3-0.5-0.4-0.8-0.4c-0.3,0-0.5,0.1-0.7,0.3s-0.3,0.4-0.3,0.7c0,0.3,0.1,0.5,0.3,0.7
	c0.1,0.1,0.2,0.2,0.3,0.2c0.1,0,0.2,0.1,0.4,0.1c0.3,0,0.5-0.1,0.7-0.3s0.3-0.4,0.3-0.7C15.7,14.5,15.6,14.3,15.5,14.1z M19.4,14
	c-0.2-0.2-0.4-0.3-0.7-0.3c-0.3,0-0.5,0.1-0.7,0.3s-0.3,0.4-0.3,0.7c0,0.3,0.1,0.5,0.3,0.7s0.4,0.3,0.7,0.3c0.3,0,0.5-0.1,0.7-0.3
	s0.3-0.4,0.3-0.7C19.7,14.4,19.6,14.2,19.4,14z M15,18.6c0.5,0.3,1.1,0.5,1.7,0.5c0.7,0,1.2-0.2,1.7-0.5c0.5-0.3,0.8-0.8,0.8-1.4h-5
	C14.2,17.8,14.5,18.3,15,18.6z M14.7,15.7c0.3,0,0.5-0.1,0.7-0.3s0.3-0.4,0.3-0.7c0-0.2-0.1-0.5-0.2-0.6c0,0,0,0-0.1-0.1
	c-0.2-0.2-0.4-0.3-0.7-0.3c-0.3,0-0.5,0.1-0.7,0.3s-0.3,0.4-0.3,0.7c0,0.3,0.1,0.5,0.3,0.7c0.1,0.1,0.2,0.2,0.3,0.2
	C14.5,15.7,14.6,15.7,14.7,15.7z M18.7,15.7c0.3,0,0.5-0.1,0.7-0.3s0.3-0.4,0.3-0.7c0-0.3-0.1-0.5-0.3-0.7s-0.4-0.3-0.7-0.3
	c-0.3,0-0.5,0.1-0.7,0.3s-0.3,0.4-0.3,0.7c0,0.3,0.1,0.5,0.3,0.7S18.4,15.7,18.7,15.7z M15,18.6c0.5,0.3,1.1,0.5,1.7,0.5
	c0.7,0,1.2-0.2,1.7-0.5c0.5-0.3,0.8-0.8,0.8-1.4h-5C14.2,17.8,14.5,18.3,15,18.6z M14.7,15.7c0.3,0,0.5-0.1,0.7-0.3s0.3-0.4,0.3-0.7
	c0-0.2-0.1-0.5-0.2-0.6c0,0,0,0-0.1-0.1c-0.2-0.2-0.4-0.3-0.7-0.3c-0.3,0-0.5,0.1-0.7,0.3s-0.3,0.4-0.3,0.7c0,0.3,0.1,0.5,0.3,0.7
	c0.1,0.1,0.2,0.2,0.3,0.2C14.5,15.7,14.6,15.7,14.7,15.7z M10.7,10.2v7c0,0.7,0.1,1.4,0.3,2c0.3,0.8,0.8,1.6,1.4,2.3
	c1.2,1.2,2.6,1.8,4.2,1.8c1.7,0,3.1-0.6,4.2-1.8c1.2-1.2,1.8-2.6,1.8-4.2v-7H10.7z M20.7,17.2c0,1.1-0.4,2-1.2,2.8
	c-0.8,0.8-1.7,1.2-2.8,1.2c-1.1,0-2-0.4-2.8-1.2c-0.7-0.7-1.1-1.5-1.2-2.5c0-0.1,0-0.2,0-0.3v-5h8V17.2z"/>
</svg>
